# Blender v2.93.5 OBJ File: 'cube_scene.blend'
# www.blender.org
mtllib led_bottom.mtl
o Cylinder.001
v 0.236231 0.337730 0.257759
v 0.236231 0.337730 0.365766
v 0.138449 0.337730 0.365692
v 0.138449 0.337730 0.257832
v -0.448241 0.337730 0.365692
v -0.448241 0.337730 0.257832
v -0.546023 0.337730 0.365766
v -0.546023 0.337730 0.257759
v 0.236231 -1.155089 0.365766
v 0.138449 -1.155089 0.365692
v 0.236231 -1.155089 0.257759
v 0.138449 -1.155089 0.257832
v -0.448241 -0.963964 0.365692
v -0.448241 -0.963964 0.257832
v -0.546023 -0.963964 0.365766
v -0.546023 -0.963964 0.257759
v -0.546023 -0.360769 0.365766
v -0.448241 -0.360769 0.365692
v -0.546023 -0.360769 0.257759
v -0.448241 -0.360769 0.257832
v 0.236231 -0.360769 0.257759
v 0.138449 -0.360769 0.257832
v 0.138449 -0.360769 0.365692
v 0.236231 -0.360769 0.365766
v -0.546023 -0.610501 0.365766
v -0.546023 -0.610501 0.257759
v -0.448241 -0.610501 0.365692
v -0.448241 -0.610501 0.257832
v 0.236231 -0.610501 0.257759
v 0.236231 -0.610501 0.365766
v 0.138449 -0.610501 0.257832
v 0.138449 -0.610501 0.365692
v -0.443352 -0.600604 0.371085
v -0.443352 -0.370665 0.371085
v -0.443352 -0.600604 0.252439
v -0.443352 -0.370665 0.252439
v -0.550912 -0.370665 0.252358
v -0.550912 -0.370665 0.371166
v 0.133560 -0.600604 0.252440
v 0.133560 -0.370665 0.252440
v 0.133560 -0.600604 0.371085
v 0.133560 -0.370665 0.371085
v 0.241120 -0.370665 0.371166
v 0.241120 -0.370665 0.252359
v -0.550912 -0.600605 0.371166
v -0.550912 -0.600605 0.252358
v 0.241120 -0.600605 0.252359
v 0.241120 -0.600605 0.371166
v 0.236231 0.965491 0.257759
v 0.236231 0.965491 0.365766
v 0.138449 0.965491 0.365692
v 0.138449 0.965491 0.257832
v -0.448241 0.965491 0.365692
v -0.448241 0.965491 0.257832
v -0.546023 0.965491 0.365766
v -0.546023 0.965491 0.257759
v 0.236231 0.535914 0.257759
v 0.138449 0.535914 0.257832
v 0.138449 0.535914 0.365692
v 0.236231 0.535914 0.365766
v -0.546023 0.535914 0.365766
v -0.448241 0.535914 0.365692
v -0.546023 0.535914 0.257759
v -0.448241 0.535914 0.257832
v -0.448241 0.613581 0.365692
v -0.448241 0.613581 0.257832
v -0.546023 0.613581 0.365766
v -0.546023 0.613581 0.257759
v 0.138449 0.613581 0.257832
v 0.138449 0.613581 0.365692
v 0.236231 0.613581 0.257759
v 0.236231 0.613581 0.365766
v -0.391232 0.965491 0.257832
v -0.391232 0.965491 0.365692
v -0.121928 0.613581 0.257832
v -0.121928 0.613581 0.365692
v -0.448241 0.898390 0.365692
v -0.448241 0.898390 0.257832
v -0.546023 0.898390 0.365766
v -0.546023 0.898390 0.257759
v -0.292015 0.613581 0.257832
v -0.292015 0.613581 0.365692
v -0.443778 0.898390 0.365692
v -0.443778 0.898390 0.257832
v -0.546023 0.693028 0.365766
v -0.546023 0.693028 0.257759
v -0.448241 0.693028 0.365692
v -0.448241 0.693028 0.257832
v -0.292015 0.693028 0.365692
v -0.292015 0.693028 0.257832
vt 0.000000 0.000000
vt 1.000000 0.000000
vt 1.000000 1.000000
vt 0.000000 0.000000
vt 1.000000 0.000000
vt 1.000000 1.000000
vt 0.000000 0.000000
vt 1.000000 0.000000
vt 1.000000 1.000000
vt 0.000000 0.000000
vt 1.000000 0.000000
vt 1.000000 1.000000
vt 0.000000 0.000000
vt 1.000000 0.000000
vt 1.000000 1.000000
vt 0.000000 0.000000
vt 1.000000 0.000000
vt 1.000000 1.000000
vt 0.000000 0.000000
vt 1.000000 1.000000
vt 0.000000 0.000000
vt 1.000000 0.000000
vt 1.000000 1.000000
vt 1.000000 1.000000
vt 1.000000 1.000000
vt 0.000000 0.000000
vt 1.000000 0.000000
vt 1.000000 1.000000
vt 0.000000 0.000000
vt 1.000000 0.000000
vt 1.000000 1.000000
vt 0.000000 0.000000
vt 1.000000 0.000000
vt 1.000000 1.000000
vt 0.000000 0.000000
vt 1.000000 0.000000
vt 1.000000 1.000000
vt 0.000000 0.000000
vt 1.000000 0.000000
vt 1.000000 1.000000
vt 0.000000 0.000000
vt 1.000000 0.000000
vt 1.000000 1.000000
vt 0.000000 0.000000
vt 1.000000 0.000000
vt 1.000000 1.000000
vt 0.000000 0.000000
vt 1.000000 0.000000
vt 1.000000 1.000000
vt 1.000000 0.000000
vt 1.000000 1.000000
vt 0.000000 0.000000
vt 1.000000 0.000000
vt 1.000000 1.000000
vt 1.000000 0.000000
vt 1.000000 1.000000
vt 0.000000 0.000000
vt 1.000000 0.000000
vt 1.000000 1.000000
vt 0.000000 0.000000
vt 0.000000 0.000000
vt 1.000000 0.000000
vt 1.000000 1.000000
vt 1.000000 0.000000
vt 0.000000 0.000000
vt 1.000000 0.000000
vt 1.000000 1.000000
vt 0.000000 0.000000
vt 1.000000 0.000000
vt 1.000000 1.000000
vt 0.000000 0.000000
vt 1.000000 1.000000
vt 0.000000 0.000000
vt 1.000000 1.000000
vt 1.000000 0.000000
vt 1.000000 1.000000
vt 0.000000 0.000000
vt 1.000000 1.000000
vt 1.000000 0.000000
vt 1.000000 1.000000
vt 0.000000 0.000000
vt 1.000000 1.000000
vt 0.000000 0.000000
vt 1.000000 0.000000
vt 1.000000 1.000000
vt 0.000000 0.000000
vt 1.000000 0.000000
vt 1.000000 1.000000
vt 0.000000 0.000000
vt 1.000000 1.000000
vt 1.000000 0.000000
vt 1.000000 1.000000
vt 1.000000 1.000000
vt 0.000000 0.000000
vt 1.000000 1.000000
vt 0.000000 0.000000
vt 1.000000 0.000000
vt 1.000000 1.000000
vt 1.000000 0.000000
vt 1.000000 1.000000
vt 0.000000 0.000000
vt 1.000000 1.000000
vt 0.000000 0.000000
vt 1.000000 0.000000
vt 1.000000 1.000000
vt 0.000000 0.000000
vt 1.000000 0.000000
vt 1.000000 1.000000
vt 1.000000 0.000000
vt 1.000000 1.000000
vt 0.000000 0.000000
vt 1.000000 0.000000
vt 1.000000 1.000000
vt 0.000000 0.000000
vt 1.000000 0.000000
vt 1.000000 1.000000
vt 1.000000 0.000000
vt 1.000000 0.000000
vt 1.000000 0.000000
vt 1.000000 1.000000
vt 1.000000 0.000000
vt 1.000000 0.000000
vt 1.000000 0.000000
vt 1.000000 1.000000
vt 0.000000 0.000000
vt 1.000000 0.000000
vt 1.000000 1.000000
vt 0.000000 0.000000
vt 1.000000 0.000000
vt 1.000000 1.000000
vt 0.000000 0.000000
vt 1.000000 0.000000
vt 1.000000 1.000000
vt 1.000000 1.000000
vt 0.000000 0.000000
vt 1.000000 0.000000
vt 1.000000 1.000000
vt 0.000000 0.000000
vt 1.000000 0.000000
vt 1.000000 1.000000
vt 0.000000 0.000000
vt 1.000000 0.000000
vt 1.000000 1.000000
vt 1.000000 1.000000
vt 0.000000 0.000000
vt 1.000000 0.000000
vt 1.000000 1.000000
vt 0.000000 0.000000
vt 1.000000 0.000000
vt 1.000000 0.000000
vt 1.000000 1.000000
vt 0.000000 0.000000
vt 1.000000 1.000000
vt 0.000000 0.000000
vt 1.000000 0.000000
vt 1.000000 1.000000
vt 0.000000 0.000000
vt 1.000000 0.000000
vt 1.000000 1.000000
vt 0.000000 0.000000
vt 1.000000 0.000000
vt 1.000000 1.000000
vt 1.000000 0.000000
vt 1.000000 1.000000
vt 0.000000 0.000000
vt 1.000000 0.000000
vt 1.000000 1.000000
vt 0.000000 0.000000
vt 1.000000 0.000000
vt 0.000000 0.000000
vt 1.000000 0.000000
vt 1.000000 1.000000
vt 0.000000 0.000000
vt 1.000000 1.000000
vt 1.000000 0.000000
vt 1.000000 1.000000
vt 0.000000 0.000000
vt 1.000000 1.000000
vt 0.000000 0.000000
vt 1.000000 0.000000
vt 1.000000 1.000000
vt 1.000000 0.000000
vt 1.000000 1.000000
vt 0.000000 0.000000
vt 0.000000 0.000000
vt 1.000000 0.000000
vt 0.000000 0.000000
vt 0.000000 0.000000
vt 1.000000 1.000000
vt 1.000000 1.000000
vt 1.000000 1.000000
vt 1.000000 0.000000
vt 1.000000 1.000000
vt 1.000000 1.000000
vt 1.000000 0.000000
vt 1.000000 0.000000
vt 1.000000 1.000000
vt 1.000000 1.000000
vt 1.000000 0.000000
vt 1.000000 1.000000
vt 1.000000 0.000000
vt 1.000000 1.000000
vt 1.000000 0.000000
vt 1.000000 1.000000
vt 1.000000 0.000000
vt 1.000000 1.000000
vt 1.000000 0.000000
vt 1.000000 0.000000
vt 1.000000 1.000000
vt 1.000000 0.000000
vt 1.000000 1.000000
vt 1.000000 1.000000
vt 1.000000 1.000000
vt 1.000000 0.000000
vt 1.000000 1.000000
vt 1.000000 0.000000
vt 1.000000 0.000000
vt 1.000000 0.000000
vt 1.000000 0.000000
vt 1.000000 0.000000
vt 1.000000 0.000000
vt 1.000000 1.000000
vt 1.000000 0.000000
vt 1.000000 1.000000
vt 1.000000 1.000000
vt 1.000000 0.000000
vt 1.000000 1.000000
vt 1.000000 0.000000
vn -1.0000 0.0000 0.0000
vn 0.0008 0.0000 1.0000
vn 0.0000 -1.0000 0.0000
vn 1.0000 0.0000 0.0000
vn -0.0008 0.0000 -1.0000
vn 0.0008 0.0000 -1.0000
vn -0.0008 0.0000 1.0000
vn 0.0007 -0.4788 0.8779
vn -0.8966 0.4429 0.0000
vn 0.8966 -0.4429 0.0000
vn 0.0007 0.4788 0.8779
vn -0.0007 -0.4788 0.8779
vn 0.8966 0.4429 0.0000
vn -0.0007 0.4788 -0.8779
vn -0.8966 -0.4429 0.0000
vn -0.0007 -0.4788 -0.8779
vn 0.0007 0.4788 -0.8779
vn -0.0007 0.4788 0.8779
vn 0.0007 -0.4788 -0.8780
vn 0.0000 1.0000 0.0000
vn -0.7941 -0.6077 0.0000
vn 0.0000 0.0000 1.0000
vn 0.0000 0.0000 -1.0000
vn 0.8042 0.5943 0.0000
vn 0.0007 -0.4788 -0.8779
usemtl IronMaterial
s off
f 26/1/1 15/2/1 25/3/1
f 25/4/2 13/5/2 27/6/2
f 11/7/3 10/8/3 12/9/3
f 13/10/3 16/11/3 14/12/3
f 27/13/4 14/14/4 28/15/4
f 29/16/5 12/17/5 31/18/5
f 31/19/1 10/8/1 32/20/1
f 30/21/4 11/22/4 29/23/4
f 26/1/6 14/14/6 16/24/6
f 30/21/7 10/8/7 9/25/7
f 6/26/6 19/27/6 8/28/6
f 5/29/4 20/30/4 6/31/4
f 7/32/2 18/33/2 5/34/2
f 8/35/1 17/36/1 7/37/1
f 3/38/7 24/39/7 2/40/7
f 2/41/4 21/42/4 1/43/4
f 4/44/1 23/45/1 3/46/1
f 1/47/5 22/48/5 4/49/5
f 25/4/8 33/50/8 45/51/8
f 19/52/9 38/53/9 17/54/9
f 29/16/10 48/55/10 30/56/10
f 22/57/9 42/58/9 23/59/9
f 28/60/10 33/50/10 27/6/10
f 17/61/11 34/62/11 18/63/11
f 30/21/12 41/64/12 32/20/12
f 24/65/13 44/66/13 21/67/13
f 37/68/6 35/69/6 46/70/6
f 34/71/4 35/69/4 36/72/4
f 38/73/2 33/50/2 34/74/2
f 37/68/1 45/75/1 38/76/1
f 43/77/7 41/64/7 48/78/7
f 43/77/4 47/79/4 44/80/4
f 40/81/1 41/64/1 42/82/1
f 44/83/5 39/84/5 40/85/5
f 21/86/14 40/87/14 22/88/14
f 32/89/15 39/84/15 31/18/15
f 26/1/15 45/75/15 46/70/15
f 29/16/16 39/84/16 47/90/16
f 19/52/17 36/91/17 37/92/17
f 24/65/18 42/58/18 43/93/18
f 18/94/13 36/91/13 20/95/13
f 26/1/19 35/69/19 28/15/19
f 79/96/2 53/97/2 55/98/2
f 79/96/1 56/99/1 80/100/1
f 78/101/4 53/97/4 77/102/4
f 71/103/5 52/104/5 49/105/5
f 52/106/20 74/107/20 51/108/20
f 71/103/4 50/109/4 72/110/4
f 80/111/6 54/112/6 78/113/6
f 72/114/7 51/115/7 70/116/7
f 2/41/7 59/117/7 3/46/7
f 1/47/4 60/118/4 2/40/4
f 3/38/1 58/119/1 4/49/1
f 1/47/5 58/119/5 57/120/5
f 8/35/6 64/121/6 6/31/6
f 6/26/4 62/122/4 5/34/4
f 7/32/1 63/123/1 8/28/1
f 7/32/2 62/122/2 61/124/2
f 63/125/6 66/126/6 64/127/6
f 64/128/4 65/129/4 62/130/4
f 61/131/1 68/132/1 63/133/1
f 61/131/2 65/129/2 67/134/2
f 60/135/7 70/136/7 59/137/7
f 57/138/4 72/139/4 60/140/4
f 59/141/1 69/142/1 58/143/1
f 57/138/5 69/142/5 71/144/5
f 76/145/21 73/146/21 75/147/21
f 51/148/22 76/149/22 70/116/22
f 52/106/23 75/150/23 73/151/23
f 70/152/3 75/150/3 69/153/3
f 86/154/6 78/155/6 88/156/6
f 65/157/22 89/158/22 87/159/22
f 85/160/1 80/161/1 86/162/1
f 85/160/2 77/163/2 79/164/2
f 90/165/24 83/166/24 89/167/24
f 77/168/20 84/169/20 78/113/20
f 66/170/3 82/171/3 65/172/3
f 88/173/23 84/169/23 90/174/23
f 88/173/23 81/175/23 66/176/23
f 81/177/4 89/158/4 82/178/4
f 67/179/2 87/180/2 85/181/2
f 67/179/1 86/182/1 68/183/1
f 87/184/22 83/166/22 77/102/22
f 68/185/6 88/186/6 66/176/6
f 50/187/20 52/104/20 51/108/20
f 56/188/20 53/97/20 54/189/20
f 26/1/1 16/11/1 15/190/1
f 25/4/2 15/2/2 13/191/2
f 11/7/3 9/192/3 10/193/3
f 13/10/3 15/2/3 16/24/3
f 27/13/4 13/5/4 14/12/4
f 29/16/5 11/22/5 12/9/5
f 31/19/1 12/17/1 10/193/1
f 30/21/4 9/192/4 11/194/4
f 26/1/6 28/195/6 14/12/6
f 30/21/7 32/196/7 10/193/7
f 6/26/6 20/30/6 19/197/6
f 5/29/4 18/33/4 20/95/4
f 7/32/2 17/36/2 18/63/2
f 8/35/1 19/27/1 17/54/1
f 3/38/7 23/45/7 24/198/7
f 2/41/4 24/39/4 21/67/4
f 4/44/1 22/48/1 23/59/1
f 1/47/5 21/42/5 22/88/5
f 25/4/8 27/199/8 33/200/8
f 19/52/9 37/201/9 38/76/9
f 29/16/10 47/79/10 48/78/10
f 22/57/9 40/87/9 42/82/9
f 28/60/10 35/69/10 33/200/10
f 17/61/11 38/53/11 34/74/11
f 30/21/12 48/55/12 41/202/12
f 24/65/13 43/203/13 44/80/13
f 37/68/6 36/91/6 35/204/6
f 34/71/4 33/50/4 35/204/4
f 38/73/2 45/75/2 33/200/2
f 37/68/1 46/205/1 45/51/1
f 43/77/7 42/58/7 41/202/7
f 43/77/4 48/55/4 47/90/4
f 40/81/1 39/84/1 41/202/1
f 44/83/5 47/79/5 39/206/5
f 21/86/14 44/66/14 40/85/14
f 32/89/15 41/64/15 39/206/15
f 26/1/15 25/207/15 45/51/15
f 29/16/16 31/208/16 39/206/16
f 19/52/17 20/30/17 36/72/17
f 24/65/18 23/45/18 42/82/18
f 18/94/13 34/62/13 36/72/13
f 26/1/25 46/205/25 35/204/25
f 79/96/2 77/163/2 53/209/2
f 79/96/1 55/210/1 56/211/1
f 78/101/4 54/112/4 53/209/4
f 71/103/5 69/142/5 52/212/5
f 52/106/20 73/146/20 74/213/20
f 71/103/4 49/214/4 50/215/4
f 80/111/6 56/99/6 54/189/6
f 72/114/7 50/109/7 51/108/7
f 2/41/7 60/118/7 59/137/7
f 1/47/4 57/216/4 60/140/4
f 3/38/1 59/117/1 58/143/1
f 1/47/5 4/217/5 58/143/5
f 8/35/6 63/123/6 64/127/6
f 6/26/4 64/121/4 62/130/4
f 7/32/1 61/218/1 63/133/1
f 7/32/2 5/219/2 62/130/2
f 63/125/6 68/132/6 66/176/6
f 64/128/4 66/126/4 65/172/4
f 61/131/1 67/220/1 68/183/1
f 61/131/2 62/122/2 65/172/2
f 60/135/7 72/139/7 70/116/7
f 57/138/4 71/221/4 72/110/4
f 59/141/1 70/136/1 69/153/1
f 57/138/5 58/119/5 69/153/5
f 76/145/21 74/107/21 73/151/21
f 51/148/22 74/107/22 76/222/22
f 52/106/23 69/142/23 75/147/23
f 70/152/3 76/149/3 75/147/3
f 86/154/6 80/161/6 78/113/6
f 65/157/22 82/171/22 89/167/22
f 85/160/1 79/223/1 80/100/1
f 85/160/2 87/180/2 77/102/2
f 90/165/24 84/169/24 83/224/24
f 77/168/20 83/166/20 84/225/20
f 66/170/3 81/175/3 82/178/3
f 88/173/23 78/155/23 84/225/23
f 88/173/23 90/226/23 81/227/23
f 81/177/4 90/226/4 89/167/4
f 67/179/2 65/129/2 87/159/2
f 67/179/1 85/228/1 86/162/1
f 87/184/22 89/158/22 83/224/22
f 68/185/6 86/182/6 88/156/6
f 50/187/20 49/214/20 52/212/20
f 56/188/20 55/210/20 53/209/20
